<svg xmlns:xlink="http://www.w3.org/1999/xlink" fill="none" viewBox="0 0 24 24" height="24" width="24" xmlns="http://www.w3.org/2000/svg" class="is-not-gradient has-nested-fill">
<path xmlns="http://www.w3.org/2000/svg" fill-rule="evenodd" clip-rule="evenodd" d="M8.43002 4.75C8.84423 4.75 9.18002 5.08579 9.18002 5.5V9.4C9.18002 9.81421 8.84423 10.15 8.43002 10.15C8.0158 10.15 7.68002 9.81421 7.68002 9.4V5.5C7.68002 5.08579 8.0158 4.75 8.43002 4.75ZM15.57 4.75C15.9842 4.75 16.32 5.08579 16.32 5.5V6.78503C16.5013 6.82669 16.6793 6.88347 16.852 6.955C17.2584 7.12336 17.6277 7.37012 17.9388 7.68119C18.2499 7.99227 18.4967 8.36157 18.665 8.76801C18.8334 9.17445 18.92 9.61007 18.92 10.05C18.92 10.4899 18.8334 10.9256 18.665 11.332C18.4967 11.7384 18.2499 12.1077 17.9388 12.4188C17.6277 12.7299 17.2584 12.9766 16.852 13.145C16.4456 13.3133 16.0099 13.4 15.57 13.4C14.6815 13.4 13.8295 13.0471 13.2012 12.4188C12.573 11.7906 12.22 10.9385 12.22 10.05C12.22 9.16153 12.573 8.30944 13.2012 7.68119C13.6495 7.23287 14.2118 6.92474 14.82 6.78502V5.5C14.82 5.08579 15.1558 4.75 15.57 4.75ZM15.57 8.2C15.0794 8.2 14.6088 8.39491 14.2619 8.74185C13.9149 9.08879 13.72 9.55935 13.72 10.05C13.72 10.5407 13.9149 11.0112 14.2619 11.3581C14.6088 11.7051 15.0794 11.9 15.57 11.9C15.813 11.9 16.0535 11.8521 16.278 11.7592C16.5024 11.6662 16.7064 11.5299 16.8782 11.3581C17.05 11.1864 17.1862 10.9824 17.2792 10.758C17.3722 10.5335 17.42 10.2929 17.42 10.05C17.42 9.80706 17.3722 9.56649 17.2792 9.34204C17.1862 9.11758 17.05 8.91364 16.8782 8.74185C16.7064 8.57006 16.5024 8.43379 16.278 8.34082C16.0535 8.24785 15.813 8.2 15.57 8.2ZM6.06121 11.5812C6.68946 10.9529 7.54154 10.6 8.43002 10.6C8.86995 10.6 9.30557 10.6867 9.71201 10.855C10.1184 11.0234 10.4877 11.2701 10.7988 11.5812C11.1099 11.8923 11.3567 12.2616 11.525 12.668C11.6934 13.0745 11.78 13.5101 11.78 13.95C11.78 14.3899 11.6934 14.8256 11.525 15.232C11.3567 15.6384 11.1099 16.0077 10.7988 16.3188C10.4877 16.6299 10.1184 16.8766 9.71201 17.045C9.53931 17.1165 9.36134 17.1733 9.18002 17.215V18.5C9.18002 18.9142 8.84423 19.25 8.43002 19.25C8.0158 19.25 7.68002 18.9142 7.68002 18.5V17.215C7.07184 17.0753 6.50953 16.7671 6.06121 16.3188C5.43296 15.6906 5.08002 14.8385 5.08002 13.95C5.08002 13.0615 5.43296 12.2094 6.06121 11.5812ZM8.43002 12.1C7.93937 12.1 7.46881 12.2949 7.12187 12.6419C6.77493 12.9888 6.58002 13.4594 6.58002 13.95C6.58002 14.4407 6.77493 14.9112 7.12187 15.2581C7.46881 15.6051 7.93937 15.8 8.43002 15.8C8.67296 15.8 8.91353 15.7521 9.13798 15.6592C9.36243 15.5662 9.56638 15.4299 9.73816 15.2581C9.90995 15.0864 10.0462 14.8824 10.1392 14.658C10.2322 14.4335 10.28 14.1929 10.28 13.95C10.28 13.7071 10.2322 13.4665 10.1392 13.242C10.0462 13.0176 9.90995 12.8136 9.73816 12.6419C9.56638 12.4701 9.36243 12.3338 9.13798 12.2408C8.91353 12.1479 8.67296 12.1 8.43002 12.1ZM15.57 13.85C15.9842 13.85 16.32 14.1858 16.32 14.6V18.5C16.32 18.9142 15.9842 19.25 15.57 19.25C15.1558 19.25 14.82 18.9142 14.82 18.5V14.6C14.82 14.1858 15.1558 13.85 15.57 13.85Z" fill="#868585"></path>
</svg>